<svg width="215" height="31" viewBox="0 0 215 31" fill="none" xmlns="http://www.w3.org/2000/svg">
<path d="M0.00151086 2.83904C-0.00974621 2.5306 0.0420363 2.22441 0.152356 1.93848C0.262675 1.65255 0.42928 1.39589 0.640913 1.182C1.13172 0.754235 1.74861 0.522339 2.38576 0.522339C3.02291 0.522339 3.6398 0.756486 4.13061 1.182C4.33999 1.40039 4.50659 1.6593 4.61916 1.94523C4.73173 2.23116 4.79027 2.53736 4.79027 2.84805C4.79027 3.15875 4.73173 3.46494 4.61916 3.75087C4.50659 4.0368 4.33999 4.29571 4.13061 4.5141C3.64205 4.94187 3.02741 5.17376 2.39026 5.17376C1.75311 5.17376 1.13848 4.93961 0.649918 4.5141C0.438285 4.29796 0.269429 4.0368 0.15911 3.74862C0.0487906 3.45818 -0.00524338 3.14974 0.00151086 2.83904ZM4.52685 23.9573H0.249167V7.17302H4.52685V23.9573Z" fill="white"/>
<path d="M7.30968 15.4852C7.30968 12.8826 7.93557 10.791 9.18511 9.20601C9.77048 8.43603 10.536 7.81914 11.414 7.40488C12.2921 6.99062 13.2579 6.79249 14.2283 6.82852C15.0568 6.78574 15.8853 6.93659 16.6463 7.26754C17.4073 7.5985 18.0782 8.10282 18.6095 8.73547L18.7919 7.13696H22.9322V23.5138C22.966 24.8759 22.6103 26.2177 21.9101 27.3884C21.2234 28.4871 20.2238 29.3607 19.0395 29.8988C17.6774 30.4976 16.2005 30.7903 14.7123 30.7566C13.456 30.7566 12.2133 30.5021 11.056 30.0158C10.0069 29.6173 9.07929 28.9532 8.36784 28.0909L10.3829 25.3351C10.8917 25.934 11.5266 26.4136 12.2425 26.7423C12.9585 27.071 13.7397 27.2376 14.5277 27.2331C15.5634 27.2916 16.581 26.9449 17.36 26.2672C17.709 25.9048 17.9791 25.477 18.1525 25.0064C18.3259 24.5359 18.3979 24.0361 18.3664 23.5363V22.6289C17.8486 23.2121 17.2092 23.6714 16.4887 23.9775C15.7705 24.2837 14.9915 24.4256 14.2103 24.3941C13.2489 24.4188 12.2943 24.2162 11.4275 23.7997C10.5607 23.3832 9.80875 22.7685 9.23014 22.0053C7.95584 20.4068 7.32769 18.2747 7.32769 15.6721V15.4807H7.30518L7.30968 15.4852ZM11.8688 15.8094C11.799 17.0792 12.1255 18.34 12.8054 19.4184C13.0823 19.8349 13.4628 20.1772 13.9086 20.4068C14.3566 20.6364 14.8542 20.7513 15.3585 20.7355C15.9529 20.776 16.545 20.6545 17.0718 20.3798C17.5986 20.1074 18.0399 19.6954 18.3461 19.1888V12.0495C18.0489 11.5452 17.6144 11.131 17.0921 10.8586C16.5697 10.5861 15.9821 10.4623 15.3945 10.5028C14.8834 10.4871 14.3791 10.6019 13.9266 10.836C13.4741 11.0702 13.0913 11.4169 12.8144 11.8424C12.1862 12.7317 11.8688 14.0488 11.8688 15.8094Z" fill="white"/>
<path d="M30.1974 7.14601L30.3415 9.14976C30.9179 8.39779 31.6586 7.79441 32.5051 7.39141C33.3517 6.98841 34.2815 6.79253 35.2158 6.8263C37.0125 6.8263 38.352 7.37115 39.2211 8.45858C40.0901 9.54826 40.5494 11.1378 40.5764 13.2879V24.4639H36.0488V13.3959C36.1164 12.6282 35.8912 11.8627 35.4252 11.2571C35.1393 11.0117 34.8083 10.8271 34.4503 10.7122C34.0924 10.5974 33.7186 10.5569 33.3449 10.5929C32.764 10.5704 32.1877 10.7122 31.6834 11.0072C31.179 11.2999 30.7625 11.7321 30.4856 12.2545V24.4526H25.958V7.15726L30.1974 7.14601Z" fill="white"/>
<path d="M43.348 2.83904C43.3368 2.53059 43.3953 2.2244 43.5169 1.93847C43.6385 1.65254 43.8208 1.39588 44.055 1.17975C44.5976 0.754228 45.282 0.520081 45.9867 0.520081C46.6914 0.520081 47.3736 0.754228 47.9184 1.17975C48.3822 1.62327 48.6411 2.22215 48.6411 2.84579C48.6411 3.46943 48.3822 4.06831 47.9184 4.51184C47.3781 4.93736 46.6959 5.1715 45.9935 5.1715C45.291 5.1715 44.6088 4.93736 44.0685 4.51184C43.8343 4.2957 43.6497 4.03454 43.5259 3.74636C43.4021 3.45818 43.3435 3.14973 43.3525 2.83904H43.348ZM48.3507 23.9596H43.625V7.17301H48.3507V23.9573V23.9596Z" fill="white"/>
<path d="M56.9803 3.04168V7.24957H59.8149V10.6042H56.9803V19.1641C56.9353 19.6481 57.0636 20.1344 57.3406 20.5284C57.5252 20.6905 57.7391 20.8098 57.971 20.8819C58.2029 20.9517 58.446 20.9719 58.6847 20.9382C59.1192 20.9404 59.5515 20.9067 59.9815 20.8346V24.304C59.1124 24.5787 58.2074 24.716 57.3 24.7138C54.1998 24.7138 52.6216 23.095 52.5653 19.8597V10.6244H50.1541V7.26984H52.5653V3.06194H56.9826V3.03943L56.9803 3.04168Z" fill="white"/>
<path d="M69.7841 24.707C68.6539 24.7498 67.526 24.5674 66.4656 24.1689C65.4074 23.7704 64.4393 23.1626 63.6175 22.3813C62.0303 20.8301 61.24 18.7701 61.24 16.1787V15.7284C61.2085 14.1254 61.553 12.5381 62.2419 11.0927C62.861 9.78466 63.8472 8.68597 65.0809 7.93174C66.3462 7.17977 67.7961 6.79703 69.2686 6.81954C71.619 6.81954 73.4832 7.56251 74.8318 9.05295C76.1804 10.5434 76.8626 12.6485 76.8626 15.3749V17.2503H65.905C66.0063 18.2883 66.4836 19.2519 67.249 19.9611C68.0325 20.6477 69.0479 21.0102 70.0881 20.9742C70.8828 21.0102 71.6776 20.8526 72.398 20.5171C73.1207 20.1817 73.7511 19.6751 74.2374 19.0447L76.4956 21.5821C75.7842 22.5817 74.8161 23.3719 73.6948 23.8695C72.4701 24.4391 71.135 24.725 69.7841 24.7048V24.707ZM69.2416 10.5524C68.8273 10.5366 68.4153 10.6109 68.0325 10.7708C67.6498 10.9306 67.3076 11.1693 67.0262 11.4755C66.4093 12.2342 66.0333 13.1595 65.9432 14.1321H72.335V13.7629C72.371 12.8939 72.0761 12.0406 71.5065 11.3832C71.2115 11.0972 70.8603 10.8766 70.4753 10.7348C70.0903 10.5929 69.6806 10.5299 69.2708 10.5546H69.2438L69.2416 10.5524Z" fill="white"/>
<path d="M89.2025 23.9573H84.6794V0H89.2025V23.9573Z" fill="white"/>
<path d="M102.376 23.9573C102.168 23.5521 102.018 23.0478 101.923 22.4444C100.831 23.6602 99.4127 24.2703 97.6656 24.2703C96.0131 24.2703 94.642 23.793 93.5568 22.8361C92.4694 21.8793 91.9268 20.6725 91.9268 19.2181C91.9268 17.4305 92.5887 16.0571 93.9148 15.1003C95.2408 14.1434 97.1568 13.6594 99.6626 13.6504H101.736V12.6822C101.736 11.9033 101.536 11.2774 101.135 10.8113C100.734 10.343 100.104 10.1089 99.2394 10.1089C98.4806 10.1089 97.884 10.2912 97.454 10.656C97.0217 11.0207 96.8078 11.5183 96.8078 12.1532H92.3005C92.3005 11.1761 92.6022 10.271 93.2056 9.44021C93.8089 8.60944 94.6622 7.95653 95.7632 7.48373C96.8641 7.01094 98.1024 6.77454 99.4758 6.77454C101.556 6.77454 103.206 7.29686 104.429 8.34152C105.651 9.38618 106.262 10.8564 106.262 12.7475V20.0624C106.273 21.6631 106.496 22.8744 106.932 23.6962V23.9618H102.378L102.376 23.9573ZM98.6472 20.8234C99.3114 20.8234 99.926 20.6748 100.487 20.3798C101.047 20.0826 101.464 19.6864 101.734 19.1866V16.2845H100.05C97.7939 16.2845 96.5917 17.0635 96.4476 18.6237L96.4318 18.8894C96.4318 19.45 96.63 19.9138 97.024 20.2785C97.4202 20.6433 97.9606 20.8256 98.6472 20.8256V20.8234Z" fill="white"/>
<path d="M124.611 15.6766C124.611 18.3806 124.034 20.4879 122.879 22.0008C121.724 23.5138 120.112 24.2703 118.043 24.2703C116.213 24.2703 114.752 23.5678 113.66 22.1652L113.457 23.9596H109.402V0H113.91V8.59365C114.95 7.37789 116.316 6.76775 118.012 6.76775C120.07 6.76775 121.684 7.52423 122.855 9.03718C124.025 10.5501 124.608 12.68 124.608 15.4244V15.6744L124.611 15.6766ZM120.103 15.3501C120.103 13.6458 119.833 12.4008 119.293 11.615C118.752 10.8293 117.946 10.4376 116.875 10.4376C115.441 10.4376 114.452 11.0252 113.912 12.2004V18.8601C114.464 20.0443 115.461 20.6387 116.906 20.6387C118.352 20.6387 119.318 19.9205 119.777 18.4864C119.995 17.7997 120.103 16.755 120.103 15.3501Z" fill="white"/>
<path d="M154.669 20.1029H152.801L148.01 12.4751V20.1029H146.141V9.35236H148.01L152.816 17.0094V9.35236H154.669V20.1029Z" fill="#B6B6C6"/>
<path d="M166.969 15.0079C166.969 16.0616 166.786 16.9847 166.422 17.7794C166.057 18.5742 165.537 19.1843 164.859 19.6098C164.181 20.0354 163.403 20.2492 162.522 20.2492C161.642 20.2492 160.874 20.0354 160.192 19.6098C159.51 19.1843 158.983 18.5764 158.611 17.7907C158.24 17.0027 158.051 16.0954 158.046 15.0665V14.4609C158.046 13.4117 158.233 12.4864 158.605 11.6849C158.976 10.8834 159.501 10.2687 160.176 9.8432C160.852 9.41768 161.631 9.2038 162.506 9.2038C163.382 9.2038 164.159 9.41318 164.837 9.83419C165.514 10.2552 166.037 10.8608 166.406 11.6511C166.775 12.4413 166.962 13.3599 166.966 14.4091V15.0079H166.969ZM165.1 14.4473C165.1 13.2563 164.875 12.3423 164.425 11.7074C163.974 11.0725 163.335 10.755 162.509 10.755C161.682 10.755 161.07 11.0725 160.615 11.7029C160.16 12.3355 159.929 13.2293 159.917 14.3866V15.0057C159.917 16.1877 160.147 17.0995 160.608 17.7457C161.068 18.3896 161.707 18.7138 162.524 18.7138C163.342 18.7138 163.988 18.3986 164.434 17.7682C164.879 17.1378 165.102 16.217 165.102 15.0079V14.4473H165.1Z" fill="#B6B6C6"/>
<path d="M170.341 20.1029V9.35236H173.516C174.466 9.35236 175.308 9.56399 176.044 9.98725C176.78 10.4105 177.35 11.0116 177.753 11.7884C178.156 12.5674 178.359 13.4567 178.359 14.4608V14.9989C178.359 16.0188 178.156 16.9126 177.749 17.6871C177.343 18.4593 176.765 19.056 176.013 19.4747C175.263 19.8935 174.403 20.1029 173.433 20.1029H170.339H170.341ZM172.21 10.8586V18.6102H173.428C174.407 18.6102 175.159 18.304 175.684 17.6916C176.209 17.0792 176.474 16.1989 176.485 15.0529V14.4541C176.485 13.2878 176.231 12.3963 175.724 11.7816C175.218 11.167 174.482 10.8586 173.516 10.8586H172.21Z" fill="#B6B6C6"/>
<path d="M188.015 15.3028H183.6V18.6102H188.76V20.1006H181.731V9.35236H188.708V10.8586H183.6V13.8259H188.015V15.3028Z" fill="#B6B6C6"/>
<path d="M192.738 18.2117C193.074 18.2117 193.331 18.3062 193.513 18.4953C193.695 18.6845 193.785 18.9231 193.785 19.209C193.785 19.495 193.693 19.7224 193.513 19.907C193.331 20.0916 193.072 20.1839 192.738 20.1839C192.405 20.1839 192.164 20.0939 191.977 19.9115C191.791 19.7291 191.696 19.495 191.696 19.209C191.696 18.9231 191.786 18.6867 191.968 18.4953C192.151 18.3062 192.407 18.2117 192.736 18.2117H192.738Z" fill="#B6B6C6"/>
<path d="M201.929 9.35236H203.788V16.8901C203.788 17.919 203.466 18.7363 202.825 19.3419C202.183 19.9475 201.334 20.2492 200.281 20.2492C199.159 20.2492 198.293 19.9655 197.682 19.4004C197.072 18.8353 196.766 18.0473 196.766 17.0387H198.626C198.626 17.6105 198.768 18.0383 199.051 18.3265C199.335 18.6147 199.745 18.7588 200.281 18.7588C200.783 18.7588 201.183 18.5922 201.481 18.2612C201.778 17.928 201.926 17.471 201.926 16.8833V9.35236H201.929Z" fill="#B6B6C6"/>
<path d="M213.055 17.3337C213.055 16.8609 212.889 16.4961 212.558 16.2417C212.227 15.9873 211.626 15.7284 210.759 15.4672C209.892 15.2061 209.203 14.9156 208.692 14.5959C207.713 13.9813 207.222 13.1776 207.222 12.1892C207.222 11.3224 207.575 10.6087 208.282 10.0481C208.989 9.48748 209.906 9.20605 211.033 9.20605C211.781 9.20605 212.447 9.34339 213.035 9.62032C213.62 9.89499 214.082 10.289 214.415 10.7978C214.751 11.3066 214.917 11.8717 214.917 12.4931H213.057C213.057 11.9325 212.882 11.4935 212.531 11.176C212.179 10.8586 211.675 10.6987 211.02 10.6987C210.41 10.6987 209.935 10.8293 209.599 11.0905C209.262 11.3517 209.093 11.7164 209.093 12.1824C209.093 12.5764 209.275 12.9051 209.64 13.1685C210.005 13.432 210.603 13.6886 211.441 13.9363C212.279 14.1839 212.949 14.4676 213.456 14.7851C213.963 15.1025 214.334 15.4672 214.57 15.877C214.807 16.289 214.924 16.7686 214.924 17.3202C214.924 18.2162 214.582 18.9277 213.895 19.4567C213.208 19.9858 212.276 20.2515 211.101 20.2515C210.322 20.2515 209.608 20.1074 208.955 19.8192C208.303 19.531 207.796 19.1348 207.433 18.626C207.071 18.1194 206.891 17.5273 206.891 16.8541H208.76C208.76 17.4642 208.962 17.937 209.365 18.2725C209.768 18.608 210.347 18.7746 211.101 18.7746C211.752 18.7746 212.238 18.644 212.567 18.3806C212.893 18.1172 213.057 17.7682 213.057 17.3359L213.055 17.3337Z" fill="#B6B6C6"/>
<path d="M137.101 30.241H132.578V0.520081H137.101V30.241Z" fill="#00B37E"/>
</svg>
